<?xml version="1.0" encoding="UTF-8" standalone="no"?>
<!-- Created with Inkscape (http://www.inkscape.org/) -->

<svg
   width="50pt"
   height="60pt"
   viewBox="0 0 17.638889 21.166667"
   version="1.1"
   id="svg5"
   inkscape:version="1.2 (1:1.2.1+202207142221+cd75a1ee6d)"
   sodipodi:docname="arrow03-R.svg"
   xmlns:inkscape="http://www.inkscape.org/namespaces/inkscape"
   xmlns:sodipodi="http://sodipodi.sourceforge.net/DTD/sodipodi-0.dtd"
   xmlns="http://www.w3.org/2000/svg"
   xmlns:svg="http://www.w3.org/2000/svg">
  <sodipodi:namedview
     id="namedview7"
     pagecolor="#ffffff"
     bordercolor="#111111"
     borderopacity="1"
     inkscape:showpageshadow="0"
     inkscape:pageopacity="0"
     inkscape:pagecheckerboard="1"
     inkscape:deskcolor="#d1d1d1"
     inkscape:document-units="mm"
     showgrid="true"
     inkscape:zoom="10.2125"
     inkscape:cx="33.439412"
     inkscape:cy="40"
     inkscape:window-width="1920"
     inkscape:window-height="1027"
     inkscape:window-x="0"
     inkscape:window-y="25"
     inkscape:window-maximized="1"
     inkscape:current-layer="layer1">
    <inkscape:grid
       type="xygrid"
       id="grid408" />
  </sodipodi:namedview>
  <defs
     id="defs2">
    <inkscape:path-effect
       effect="bspline"
       id="path-effect310"
       is_visible="true"
       lpeversion="1"
       weight="33.333333"
       steps="2"
       helper_size="0"
       apply_no_weight="true"
       apply_with_weight="true"
       only_selected="false" />
  </defs>
  <g
     inkscape:label="Calque 1"
     inkscape:groupmode="layer"
     id="layer1">
    <path
       style="fill:#ff0000;stroke:#000000;stroke-width:0.264583px;stroke-linecap:butt;stroke-linejoin:miter;stroke-opacity:1"
       d="m 8.0204447,0.35909664 c 0,0 -4.3848322,5.53508976 -4.3848322,5.53508976 0,0 1.7301659,-0.022375 1.7301659,-0.022375 0,0 1.0409257,1.775744 1.0409257,1.775744 0,0 0.1811063,2.8315957 0.1811063,2.8315957 0,0 0.3667274,9.599449 0.3667274,9.599449 0,0 1.8496604,-0.01005 1.8496604,-0.01005 0,0 0.3549175,-9.533456 0.3549175,-9.533456 0,0 0.3182402,-2.9384335 0.3182402,-2.9384335 0,0 0.8033571,-1.6866973 0.8033571,-1.6866973 0,0 1.651766,0.00568 1.651766,0.00568 0,0 -3.9120343,-5.55654796 -3.9120343,-5.55654796 z"
       id="path308"
       inkscape:path-effect="#path-effect310"
       inkscape:original-d="M 8.0204447,0.35909664 3.6356125,5.8941864 5.3657784,5.8718113 6.4067041,7.6475553 6.5878104,10.479151 6.9545378,20.0786 8.8041982,20.068549 9.1591157,10.535093 9.4773559,7.5966595 10.280713,5.9099622 l 1.651766,0.00568 z"
       sodipodi:nodetypes="cccccccccccc" />
  </g>
</svg>
