<?xml version="1.0" encoding="UTF-8" standalone="no"?>
<!-- Created with Inkscape (http://www.inkscape.org/) -->

<svg
   width="50pt"
   height="60pt"
   viewBox="0 0 17.638889 21.166667"
   version="1.1"
   id="svg5"
   inkscape:version="1.2 (1:1.2.1+202207142221+cd75a1ee6d)"
   sodipodi:docname="arrow04-B.svg"
   xmlns:inkscape="http://www.inkscape.org/namespaces/inkscape"
   xmlns:sodipodi="http://sodipodi.sourceforge.net/DTD/sodipodi-0.dtd"
   xmlns="http://www.w3.org/2000/svg"
   xmlns:svg="http://www.w3.org/2000/svg">
  <sodipodi:namedview
     id="namedview7"
     pagecolor="#ffffff"
     bordercolor="#111111"
     borderopacity="1"
     inkscape:showpageshadow="0"
     inkscape:pageopacity="0"
     inkscape:pagecheckerboard="1"
     inkscape:deskcolor="#d1d1d1"
     inkscape:document-units="mm"
     showgrid="true"
     inkscape:zoom="10.2125"
     inkscape:cx="33.439412"
     inkscape:cy="40"
     inkscape:window-width="1920"
     inkscape:window-height="1027"
     inkscape:window-x="0"
     inkscape:window-y="25"
     inkscape:window-maximized="1"
     inkscape:current-layer="layer1">
    <inkscape:grid
       type="xygrid"
       id="grid408" />
  </sodipodi:namedview>
  <defs
     id="defs2">
    <inkscape:path-effect
       effect="bspline"
       id="path-effect310"
       is_visible="true"
       lpeversion="1"
       weight="33.333333"
       steps="2"
       helper_size="0"
       apply_no_weight="true"
       apply_with_weight="true"
       only_selected="false" />
  </defs>
  <g
     inkscape:label="Calque 1"
     inkscape:groupmode="layer"
     id="layer1">
    <path
       style="fill:#4169e1;stroke:#000000;stroke-width:0.264583px;stroke-linecap:butt;stroke-linejoin:miter;stroke-opacity:1"
       d="m 7.9579918,0.96008975 c 0,0 -4.289264,5.47831685 -4.289264,5.47831685 0,0 1.7301659,-0.022375 1.7301659,-0.022375 0,0 1.4768515,-1.9442887 1.4768515,-1.9442887 0,0 0.014443,6.4940881 0.014443,6.4940881 0,0 0.097464,9.656989 0.097464,9.656989 0,0 1.8496604,-0.01005 1.8496604,-0.01005 0,0 0.031521,-9.503081 0.031521,-9.503081 0,0 0.025614,-6.6252866 0.025614,-6.6252866 0,0 1.4193804,1.9697811 1.4193804,1.9697811 0,0 1.651766,0.00568 1.651766,0.00568 0,0 -4.0076022,-5.49977375 -4.0076022,-5.49977375 z"
       id="path308"
       inkscape:path-effect="#path-effect310"
       inkscape:original-d="m 7.9579918,0.96008975 -4.289264,5.47831685 1.7301659,-0.022375 1.4768515,-1.9442887 0.014443,6.4940881 0.097464,9.656989 1.8496604,-0.01005 0.031521,-9.503081 0.025614,-6.6252866 1.4193804,1.9697811 1.651766,0.00568 z"
       sodipodi:nodetypes="cccccccccccc" />
  </g>
</svg>
